<svg width="162" height="50" viewBox="0 0 162 50" fill="none" xmlns="http://www.w3.org/2000/svg">
<path d="M8.28101 45.6821C8.28101 44.793 7.97592 44.0434 7.37445 43.4245C6.77299 42.8056 6.04078 42.5005 5.18653 42.5005C4.41073 42.5005 3.73953 42.7446 3.17293 43.2414C2.61505 43.7296 2.26638 44.3223 2.13563 45.0284H1.30753V42.6312H0V48.733H1.30753V46.2487H2.13563C2.26638 46.9897 2.61505 47.6173 3.17293 48.1141C3.73081 48.611 4.40201 48.8638 5.18653 48.8638C6.04078 48.8638 6.77299 48.5587 7.37445 47.9398C7.97592 47.3296 8.28101 46.5713 8.28101 45.6821ZM6.97348 45.6821C6.97348 46.2574 6.79914 46.7369 6.45047 47.1117C6.09308 47.4952 5.67467 47.687 5.18653 47.687C4.69838 47.687 4.27997 47.4952 3.9313 47.1117C3.57391 46.7369 3.39957 46.2574 3.39957 45.6821C3.39957 45.1068 3.57391 44.6274 3.9313 44.2439C4.27997 43.869 4.69838 43.6773 5.18653 43.6773C5.67467 43.6773 6.09308 43.869 6.45047 44.2439C6.79914 44.6274 6.97348 45.1068 6.97348 45.6821Z" fill="white"/>
<path d="M10.3682 42.6316V48.7334H11.6757V46.7285H12.9396C13.5672 46.7285 14.0903 46.528 14.5 46.1358C14.9096 45.7435 15.1188 45.2554 15.1188 44.6801C15.1188 44.096 14.9096 43.6166 14.5 43.2156C14.0815 42.8234 13.5672 42.6316 12.9396 42.6316H10.3682ZM12.8961 43.8084C13.1576 43.8084 13.3755 43.8955 13.5498 44.0612C13.7242 44.2268 13.8113 44.436 13.8113 44.6801C13.8113 44.9241 13.7242 45.1333 13.5498 45.2989C13.3755 45.4646 13.1576 45.5517 12.8961 45.5517H11.6757V43.8084H12.8961Z" fill="white"/>
<path d="M22.6097 48.7334V42.6316H21.4765L18.4691 46.5106V42.6316H17.1616V48.7334H18.2948L21.3021 44.8544V48.7334H22.6097Z" fill="white"/>
<path d="M24.2598 47.5566V49.9973H25.5673V48.7334H29.2284V49.9973H30.5359V47.5566H29.795V42.6316H25.5673V44.5057C25.5673 44.9154 25.5324 45.2989 25.4627 45.6563C25.393 46.0224 25.3145 46.3101 25.2361 46.528C25.1489 46.7372 25.053 46.929 24.9397 47.112C24.8264 47.2864 24.7566 47.3997 24.713 47.452C24.6607 47.4956 24.6346 47.5392 24.6084 47.5566H24.2598ZM26.8748 44.5057V43.8084H28.4874V47.5566H25.916L26.0206 47.452C26.0816 47.3823 26.16 47.269 26.2559 47.1033C26.3518 46.9377 26.439 46.7459 26.5349 46.528C26.6307 46.3101 26.7092 46.0137 26.7702 45.6563C26.84 45.2989 26.8748 44.9154 26.8748 44.5057Z" fill="white"/>
<path d="M37.8489 48.7334V42.6316H36.7157L33.7084 46.5106V42.6316H32.4009V48.7334H33.5341L36.5414 44.8544V48.7334H37.8489Z" fill="white"/>
<path d="M41.5053 42.6316H40.1978V44.5057C40.1978 45.2379 40.3895 45.8045 40.7731 46.2055C41.1653 46.6152 41.6971 46.8157 42.377 46.8157C42.961 46.8157 43.4404 46.7024 43.8152 46.467V48.7334H45.1228V42.6316H43.8152V45.2031L43.6671 45.3164C43.5712 45.3861 43.423 45.4559 43.2225 45.5343C43.022 45.604 42.8128 45.6389 42.5949 45.6389C42.2462 45.6389 41.976 45.543 41.7842 45.3512C41.6012 45.1508 41.5053 44.8718 41.5053 44.5057V42.6316Z" fill="white"/>
<path d="M52.7887 42.6316H51.4812V45.0723H48.8661V42.6316H47.5586V48.7334H48.8661V46.2491H51.4812V48.7334H52.7887V42.6316Z" fill="white"/>
<path d="M58.3637 46.1619H56.8819L57.6228 44.157L58.3637 46.1619ZM58.7996 47.2951L59.3226 48.7334H60.7173L58.3202 42.6316H56.9255L54.5283 48.7334H55.923L56.446 47.2951H58.7996Z" fill="white"/>
<path d="M66.4179 42.6316H65.1104V48.7334H66.4179V46.99L67.2024 46.1183L68.9893 48.7334H70.5148L68.0741 45.1595L70.3405 42.6316H68.815L66.4179 45.2902V42.6316Z" fill="white"/>
<path d="M73.169 45.6821C73.169 45.1243 73.3608 44.6448 73.7443 44.2613C74.1191 43.869 74.5811 43.6773 75.1303 43.6773C75.6794 43.6773 76.1414 43.869 76.5163 44.2613C76.8998 44.6448 77.0916 45.1243 77.0916 45.6821C77.0916 46.2487 76.8998 46.7194 76.5163 47.103C76.1414 47.4952 75.6794 47.687 75.1303 47.687C74.5811 47.687 74.1191 47.4952 73.7443 47.103C73.3608 46.7194 73.169 46.2487 73.169 45.6821ZM71.8179 45.6821C71.8179 46.5538 72.1404 47.3122 72.7767 47.9311C73.4131 48.55 74.1976 48.8638 75.1303 48.8638C76.063 48.8638 76.8475 48.55 77.4838 47.9311C78.1202 47.3122 78.4427 46.5538 78.4427 45.6821C78.4427 44.8017 78.1202 44.0521 77.4838 43.4332C76.8475 42.8143 76.063 42.5005 75.1303 42.5005C74.1976 42.5005 73.4131 42.8143 72.7767 43.4332C72.1404 44.0521 71.8179 44.8017 71.8179 45.6821Z" fill="white"/>
<path d="M83.7986 45.2902L81.7066 42.6316H80.5298V48.7334H81.8373V44.6801L83.7986 47.1644L85.7599 44.6626V48.7334H87.0674V42.6316H85.9081L83.7986 45.2902Z" fill="white"/>
<path d="M94.6875 42.6316H89.501V48.7334H90.8085V43.8084H93.38V48.7334H94.6875V42.6316Z" fill="white"/>
<path d="M100.264 46.1619H98.7818L99.5227 44.157L100.264 46.1619ZM100.699 47.2951L101.222 48.7334H102.617L100.22 42.6316H98.8254L96.4282 48.7334H97.8229L98.3459 47.2951H100.699Z" fill="white"/>
<path d="M109.587 42.6316H108.279V45.0723H105.664V42.6316H104.356V48.7334H105.664V46.2491H108.279V48.7334H109.587V42.6316Z" fill="white"/>
<path d="M113.329 42.6316H112.022V48.7334H113.329V42.6316Z" fill="white"/>
<path d="M120.298 42.6316H117.596C116.985 42.6316 116.489 42.8234 116.096 43.2069C115.704 43.5904 115.504 44.0699 115.504 44.6365C115.504 44.8805 115.547 45.1072 115.617 45.3251C115.695 45.543 115.783 45.7086 115.887 45.8307C115.983 45.9527 116.088 46.066 116.218 46.1706C116.34 46.2752 116.428 46.345 116.48 46.3711C116.523 46.3886 116.567 46.4147 116.593 46.4234L115.286 48.7334H116.68L117.857 46.5978H118.99V48.7334H120.298V42.6316ZM116.811 44.6365C116.811 44.3924 116.89 44.2006 117.046 44.0437C117.203 43.8868 117.404 43.8084 117.639 43.8084H118.99V45.421H117.639C117.404 45.421 117.203 45.3425 117.046 45.1943C116.89 45.0462 116.811 44.8544 116.811 44.6365Z" fill="white"/>
<path fill-rule="evenodd" clip-rule="evenodd" d="M152.206 20.9163H142.663L146.868 8.12305L151.625 8.15117L148.863 16.5882L153.606 16.591L152.206 20.9163Z" fill="url(#paint0_linear)"/>
<path fill-rule="evenodd" clip-rule="evenodd" d="M132.724 37.5235H128C128 37.5235 136.604 11.0352 138.613 4.85181C139.552 1.95875 142.247 0 145.287 0H153.732C156.279 0 158.404 1.07604 159.725 2.89435C161.046 4.71276 161.42 7.03947 160.65 9.41309C159.879 11.7867 159.151 14.0273 158.484 16.0803C157.584 18.8523 155.09 20.7624 152.207 20.9177C152.207 20.9177 152.192 20.9128 156.232 8.47391C156.589 7.37621 156.458 6.30176 155.898 5.53116C155.339 4.76066 154.395 4.30464 153.146 4.30464H145.9C144.477 4.30464 143.216 5.22125 142.776 6.57509L132.724 37.5235Z" fill="#F0145A"/>
<path d="M27.108 0.0090332H23V28.7651H27.108V0.0090332Z" fill="white"/>
<path d="M51.3377 20.3433L51.5431 18.2893C51.5431 15.5369 50.6394 13.2365 48.7908 11.3879C46.9422 9.53926 44.6417 8.6355 41.8893 8.6355C39.137 8.6355 36.7543 9.62142 34.7825 11.5933C32.8106 13.5651 31.8247 15.9067 31.8247 18.7001C31.8247 21.5757 32.8517 24.0405 34.8646 26.0945C36.8776 28.1485 39.3013 29.1755 42.0947 29.1755C43.1628 29.1755 44.1487 29.0112 45.1346 28.7236C46.1206 28.395 46.9422 28.0664 47.5173 27.7377C48.1335 27.368 48.7497 26.9572 49.2837 26.5053C49.8178 26.0534 50.1875 25.7248 50.3518 25.5194C50.5161 25.314 50.6394 25.1908 50.7215 25.0675L48.0513 22.3973L47.4351 23.1778C47.0243 23.6708 46.326 24.1638 45.34 24.6978C44.313 25.2318 43.245 25.4783 42.0947 25.4783C40.4926 25.4783 39.137 24.9854 37.9867 23.9584C36.8365 22.9314 36.1381 21.74 35.9327 20.3433H51.3377ZM41.8893 12.1273C43.4093 12.1273 44.6417 12.5792 45.6687 13.4419C46.6546 14.3456 47.2708 15.4548 47.5173 16.8515H36.097C36.4668 15.4548 37.124 14.3456 38.151 13.4419C39.137 12.5792 40.4104 12.1273 41.8893 12.1273Z" fill="white"/>
<path d="M70.497 27.5734C70.497 29.3809 69.9629 30.8598 68.8538 32.01C67.7857 33.1192 66.4301 33.6943 64.7458 33.6943C64.0063 33.6943 63.2669 33.5711 62.5685 33.3657C61.8702 33.1603 61.3361 32.9138 60.8842 32.6262C60.4324 32.3387 60.0216 32.0511 59.6108 31.6814C59.241 31.3117 58.9946 31.0652 58.8713 30.9419C58.7481 30.8187 58.6659 30.6955 58.5838 30.6133L55.9136 33.2835L56.2422 33.6943C56.4476 33.9819 56.8173 34.3516 57.3103 34.7624C57.8032 35.1321 58.3784 35.5429 59.0356 35.9537C59.6929 36.3234 60.5145 36.6521 61.5415 36.9396C62.5685 37.2272 63.6366 37.3915 64.7458 37.3915C67.5392 37.3915 69.8397 36.4467 71.7705 34.557C73.6601 32.6262 74.605 30.3258 74.605 27.5323V9.0463H70.497V11.1003L69.7986 10.4841C69.3467 10.0733 68.6484 9.6625 67.6625 9.2517C66.6765 8.8409 65.6085 8.6355 64.5404 8.6355C62.0345 8.6355 59.8983 9.58034 58.0497 11.5111C56.2011 13.4419 55.2974 15.7423 55.2974 18.4947C55.2974 21.2471 56.2011 23.5475 58.0497 25.4783C59.8983 27.4091 62.0345 28.3539 64.5404 28.3539C65.2387 28.3539 65.896 28.2718 66.5944 28.1074C67.2517 27.902 67.7857 27.6966 68.2376 27.4912C68.6895 27.2858 69.1003 27.0393 69.47 26.7518C69.8397 26.4642 70.1273 26.2588 70.2094 26.1767L70.497 25.8891V27.5734ZM59.4054 18.4947C59.4054 16.7693 59.9394 15.3315 61.0486 14.1402C62.1577 12.9489 63.4723 12.3327 64.9512 12.3327C66.4301 12.3327 67.7446 12.9489 68.8538 14.1402C69.9219 15.3315 70.497 16.7693 70.497 18.4947C70.497 20.2201 69.9219 21.6579 68.8538 22.8492C67.7446 24.0405 66.4301 24.6567 64.9512 24.6567C63.4723 24.6567 62.1577 24.0405 61.0486 22.8492C59.9394 21.6579 59.4054 20.2201 59.4054 18.4947Z" fill="white"/>
<path d="M96.0472 28.7647V16.0299C96.0472 13.9348 95.2667 12.1684 93.7468 10.7717C92.2268 9.33386 90.255 8.6355 87.8312 8.6355C86.8864 8.6355 85.9415 8.75874 85.0378 9.00522C84.134 9.29278 83.3946 9.58034 82.8605 9.90898C82.3265 10.2376 81.7925 10.6073 81.2995 11.0592C80.8065 11.47 80.519 11.7576 80.3547 11.9219C80.2314 12.0862 80.1082 12.2095 80.026 12.3327L82.6962 15.0029L83.2303 14.3045C83.5589 13.8527 84.134 13.4419 84.9967 12.99C85.8594 12.5381 86.8042 12.3327 87.8312 12.3327C89.0226 12.3327 90.0085 12.7024 90.789 13.4008C91.5695 14.0991 91.9392 15.0029 91.9392 16.0299L84.7502 17.2623C82.9838 17.5499 81.546 18.2482 80.5601 19.3574C79.5331 20.4666 78.999 21.8222 78.999 23.4243C78.999 24.9443 79.6563 26.2588 80.9709 27.4091C82.3265 28.6004 83.9697 29.1755 85.9826 29.1755C86.681 29.1755 87.3383 29.0934 87.9956 28.888C88.6939 28.7236 89.228 28.5182 89.6798 28.3128C90.1317 28.1074 90.5425 27.861 90.9122 27.5734C91.282 27.2858 91.5284 27.0804 91.6928 26.9983C91.816 26.875 91.8982 26.7518 91.9392 26.7107V28.7647H96.0472ZM86.5988 25.4783C85.5307 25.4783 84.6681 25.2318 84.0519 24.7389C83.3946 24.2459 83.107 23.6708 83.107 23.0135C83.107 22.3152 83.3124 21.699 83.7643 21.2471C84.2162 20.7952 84.8324 20.4666 85.5718 20.3433L91.9392 19.3163V19.7271C91.9392 21.5757 91.4874 22.9724 90.5425 23.9994C89.5977 24.9854 88.2831 25.4783 86.5988 25.4783Z" fill="white"/>
<path d="M105.112 0.0090332H101.004V28.7651H105.112V0.0090332Z" fill="white"/>
<path d="M123.791 11.3057L123.545 11.0181C123.38 10.8538 123.134 10.6484 122.764 10.3609C122.395 10.0733 121.984 9.82682 121.532 9.53926C121.08 9.29278 120.464 9.08738 119.724 8.88198C118.985 8.71766 118.204 8.6355 117.424 8.6355C115.411 8.6355 113.768 9.21062 112.453 10.3609C111.098 11.5522 110.44 12.8667 110.44 14.3867C110.44 15.4959 110.687 16.3996 111.18 17.2212C111.673 18.0017 112.289 18.5769 113.069 18.9055C113.809 19.2752 114.63 19.6449 115.493 19.9325C116.356 20.2201 117.136 20.4666 117.917 20.672C118.656 20.9184 119.272 21.206 119.765 21.5757C120.258 21.9454 120.505 22.4384 120.505 23.0135C120.505 23.753 120.217 24.3692 119.683 24.821C119.149 25.2318 118.328 25.4783 117.218 25.4783C116.315 25.4783 115.411 25.2318 114.548 24.821C113.686 24.3692 113.152 23.9994 112.864 23.7119C112.617 23.4243 112.412 23.1778 112.289 23.0135L109.619 25.6837L109.906 26.0534C110.112 26.2999 110.399 26.5875 110.81 26.9161C111.262 27.2858 111.755 27.6145 112.289 27.9431C112.864 28.2718 113.603 28.5593 114.466 28.8058C115.329 29.0523 116.274 29.1755 117.218 29.1755C119.396 29.1755 121.203 28.5593 122.559 27.368C123.915 26.1767 124.613 24.6978 124.613 23.0135C124.613 21.9044 124.366 20.9595 123.873 20.2201C123.38 19.4395 122.764 18.8644 121.984 18.4947C121.244 18.0839 120.423 17.7553 119.56 17.4677C118.697 17.1801 117.917 16.8926 117.136 16.7283C116.397 16.5229 115.781 16.1942 115.288 15.8245C114.795 15.4548 114.548 14.9618 114.548 14.3867C114.548 13.8527 114.795 13.3597 115.329 12.9489C115.822 12.5381 116.52 12.3327 117.424 12.3327C118.081 12.3327 118.738 12.497 119.355 12.7846C120.012 13.0721 120.464 13.3186 120.669 13.524C120.875 13.7294 121.039 13.8937 121.121 13.9759L123.791 11.3057Z" fill="white"/>
<path d="M4.16699 0.291992H0.0830078V29H4.16699V18.3496C4.16699 16.5479 4.62744 15.1265 5.54834 14.1255C6.46924 13.1245 7.73047 12.604 9.29199 12.604C10.6333 12.604 11.7544 13.0845 12.6553 14.0054C13.5562 14.9463 14.0166 16.1274 14.0166 17.5488V29.02H18.1206V17.5488C18.1206 14.9062 17.3799 12.8242 15.8984 11.2627C14.417 9.70117 12.4751 8.92041 10.1128 8.92041C9.43213 8.92041 8.75146 9.00049 8.09082 9.18066C7.41016 9.36084 6.86963 9.56104 6.4292 9.78125C5.98877 10.0015 5.56836 10.2417 5.18799 10.522C4.80762 10.8022 4.54736 11.0024 4.42725 11.1226C4.30713 11.2427 4.20703 11.3228 4.16699 11.3828V0.291992Z" fill="#F0145A"/>
<defs>
<linearGradient id="paint0_linear" x1="142.662" y1="18.4659" x2="153.28" y2="24.0135" gradientUnits="userSpaceOnUse">
<stop stop-color="#F0145A"/>
<stop offset="1" stop-color="#693264"/>
</linearGradient>
</defs>
</svg>
